<svg width="350" height="400" viewBox="0 0 350 400" fill="none" xmlns="http://www.w3.org/2000/svg">
<rect width="350" height="400" rx="24" fill="white"/>
<rect x="30.5" y="40.5" width="122" height="37" rx="18.5" fill="white"/>
<rect x="30.5" y="40.5" width="122" height="37" rx="18.5" stroke="#E4E7E5"/>
<path d="M53 66.5C57.1421 66.5 60.5 63.1421 60.5 59C60.5 54.8579 57.1421 51.5 53 51.5C48.8579 51.5 45.5 54.8579 45.5 59C45.5 63.1421 48.8579 66.5 53 66.5Z" stroke="#4A5450" stroke-width="1.66667" stroke-linecap="round" stroke-linejoin="round"/>
<path d="M45.5 59H60.5M53 51.5C54.7635 53.6013 55.7302 56.2568 55.7302 59C55.7302 61.7432 54.7635 64.3987 53 66.5C51.2365 64.3987 50.2698 61.7432 50.2698 59C50.2698 56.2568 51.2365 53.6013 53 51.5Z" stroke="#4A5450" stroke-width="1.66667" stroke-linecap="round" stroke-linejoin="round"/>
<path d="M77.9631 58.9091C77.9631 59.9962 77.7642 60.9309 77.3665 61.7131C76.9688 62.492 76.4235 63.0919 75.7308 63.5128C75.0414 63.9304 74.2576 64.1392 73.3793 64.1392C72.4976 64.1392 71.7105 63.9304 71.0178 63.5128C70.3284 63.0919 69.7848 62.4903 69.3871 61.7081C68.9893 60.9259 68.7905 59.9929 68.7905 58.9091C68.7905 57.822 68.9893 56.889 69.3871 56.1101C69.7848 55.3279 70.3284 54.728 71.0178 54.3104C71.7105 53.8894 72.4976 53.679 73.3793 53.679C74.2576 53.679 75.0414 53.8894 75.7308 54.3104C76.4235 54.728 76.9688 55.3279 77.3665 56.1101C77.7642 56.889 77.9631 57.822 77.9631 58.9091ZM76.4418 58.9091C76.4418 58.0805 76.3075 57.3828 76.0391 56.8161C75.7739 56.246 75.4093 55.8151 74.9453 55.5234C74.4846 55.2285 73.9626 55.081 73.3793 55.081C72.7926 55.081 72.2689 55.2285 71.8082 55.5234C71.3475 55.8151 70.983 56.246 70.7145 56.8161C70.4493 57.3828 70.3168 58.0805 70.3168 58.9091C70.3168 59.7377 70.4493 60.437 70.7145 61.0071C70.983 61.5739 71.3475 62.0047 71.8082 62.2997C72.2689 62.5914 72.7926 62.7372 73.3793 62.7372C73.9626 62.7372 74.4846 62.5914 74.9453 62.2997C75.4093 62.0047 75.7739 61.5739 76.0391 61.0071C76.3075 60.437 76.4418 59.7377 76.4418 58.9091ZM83.3237 56.3636V57.5568H79.1525V56.3636H83.3237ZM80.2711 54.5341H81.7576V61.7578C81.7576 62.0462 81.8007 62.2633 81.8869 62.4091C81.9731 62.5516 82.0841 62.6494 82.22 62.7024C82.3592 62.7521 82.51 62.777 82.6724 62.777C82.7917 62.777 82.8961 62.7687 82.9856 62.7521C83.0751 62.7356 83.1447 62.7223 83.1944 62.7124L83.4629 63.9403C83.3767 63.9735 83.2541 64.0066 83.095 64.0398C82.9359 64.0762 82.737 64.0961 82.4984 64.0994C82.1073 64.1061 81.7427 64.0365 81.4047 63.8906C81.0666 63.7448 80.7931 63.5194 80.5843 63.2145C80.3755 62.9096 80.2711 62.5268 80.2711 62.0661V54.5341ZM84.968 56.3636H86.4545V64.4972C86.4545 65.0076 86.3617 65.4384 86.1761 65.7898C85.9938 66.1411 85.7221 66.4079 85.3608 66.5902C85.0028 66.7725 84.5604 66.8636 84.0334 66.8636C83.9804 66.8636 83.9306 66.8636 83.8842 66.8636C83.8345 66.8636 83.7831 66.862 83.7301 66.8587V65.581C83.7765 65.581 83.8179 65.581 83.8544 65.581C83.8875 65.581 83.9257 65.581 83.9688 65.581C84.3201 65.581 84.5736 65.4865 84.7294 65.2976C84.8885 65.112 84.968 64.8419 84.968 64.4872V56.3636ZM85.7038 55.1854C85.4453 55.1854 85.2232 55.0992 85.0376 54.9268C84.8554 54.7512 84.7642 54.5424 84.7642 54.3004C84.7642 54.0552 84.8554 53.8464 85.0376 53.674C85.2232 53.4983 85.4453 53.4105 85.7038 53.4105C85.9624 53.4105 86.1828 53.4983 86.3651 53.674C86.5507 53.8464 86.6435 54.0552 86.6435 54.3004C86.6435 54.5424 86.5507 54.7512 86.3651 54.9268C86.1828 55.0992 85.9624 55.1854 85.7038 55.1854ZM88.4544 64V56.3636H89.9409V64H88.4544ZM89.2051 55.1854C88.9466 55.1854 88.7245 55.0992 88.5389 54.9268C88.3566 54.7512 88.2654 54.5424 88.2654 54.3004C88.2654 54.0552 88.3566 53.8464 88.5389 53.674C88.7245 53.4983 88.9466 53.4105 89.2051 53.4105C89.4636 53.4105 89.684 53.4983 89.8663 53.674C90.0519 53.8464 90.1447 54.0552 90.1447 54.3004C90.1447 54.5424 90.0519 54.7512 89.8663 54.9268C89.684 55.0992 89.4636 55.1854 89.2051 55.1854ZM93.4272 59.4659V64H91.9407V53.8182H93.4073V57.6065H93.5018C93.6808 57.1955 93.9542 56.8691 94.3221 56.6271C94.69 56.3852 95.1706 56.2642 95.7638 56.2642C96.2875 56.2642 96.7449 56.3719 97.136 56.5874C97.5304 56.8028 97.8353 57.1243 98.0508 57.5518C98.2695 57.9761 98.3789 58.5064 98.3789 59.1428V64H96.8924V59.3217C96.8924 58.7616 96.7482 58.3274 96.4599 58.0192C96.1715 57.7076 95.7705 57.5518 95.2567 57.5518C94.9054 57.5518 94.5906 57.6264 94.3121 57.7756C94.0371 57.9247 93.82 58.1435 93.6609 58.4318C93.5051 58.7169 93.4272 59.0616 93.4272 59.4659ZM103.654 64.1541C102.901 64.1541 102.253 63.9934 101.71 63.6719C101.17 63.3471 100.752 62.8913 100.457 62.3047C100.165 61.7147 100.02 61.0237 100.02 60.2315C100.02 59.4493 100.165 58.7599 100.457 58.1634C100.752 57.5668 101.163 57.1011 101.69 56.7663C102.22 56.4316 102.84 56.2642 103.549 56.2642C103.98 56.2642 104.398 56.3355 104.802 56.478C105.207 56.6205 105.569 56.8442 105.891 57.1491C106.212 57.4541 106.466 57.8501 106.652 58.3374C106.837 58.8213 106.93 59.4096 106.93 60.1023V60.6293H100.86V59.5156H105.473C105.473 59.1245 105.394 58.7782 105.235 58.4766C105.076 58.1716 104.852 57.9313 104.564 57.7557C104.279 57.58 103.944 57.4922 103.559 57.4922C103.142 57.4922 102.777 57.5949 102.466 57.8004C102.157 58.0026 101.919 58.2678 101.75 58.5959C101.584 58.9207 101.501 59.2737 101.501 59.6548V60.5249C101.501 61.0353 101.591 61.4695 101.77 61.8274C101.952 62.1854 102.205 62.4588 102.53 62.6477C102.855 62.8333 103.234 62.9261 103.669 62.9261C103.95 62.9261 104.207 62.8864 104.439 62.8068C104.671 62.724 104.872 62.6013 105.041 62.4389C105.21 62.2765 105.339 62.076 105.429 61.8374L106.836 62.0909C106.723 62.5052 106.521 62.8681 106.229 63.1797C105.941 63.4879 105.578 63.7282 105.14 63.9006C104.706 64.0696 104.211 64.1541 103.654 64.1541ZM108.579 64V56.3636H110.016V57.5767H110.096C110.235 57.1657 110.48 56.8426 110.831 56.6072C111.186 56.3686 111.587 56.2493 112.035 56.2493C112.127 56.2493 112.237 56.2526 112.363 56.2592C112.492 56.2659 112.593 56.2741 112.666 56.2841V57.706C112.606 57.6894 112.5 57.6712 112.348 57.6513C112.195 57.6281 112.043 57.6165 111.89 57.6165C111.539 57.6165 111.226 57.6911 110.951 57.8402C110.679 57.986 110.464 58.1899 110.305 58.4517C110.145 58.7102 110.066 59.0052 110.066 59.3366V64H108.579ZM116.97 64.1541C116.218 64.1541 115.57 63.9934 115.026 63.6719C114.486 63.3471 114.068 62.8913 113.773 62.3047C113.482 61.7147 113.336 61.0237 113.336 60.2315C113.336 59.4493 113.482 58.7599 113.773 58.1634C114.068 57.5668 114.479 57.1011 115.006 56.7663C115.537 56.4316 116.156 56.2642 116.866 56.2642C117.297 56.2642 117.714 56.3355 118.119 56.478C118.523 56.6205 118.886 56.8442 119.207 57.1491C119.529 57.4541 119.782 57.8501 119.968 58.3374C120.154 58.8213 120.246 59.4096 120.246 60.1023V60.6293H114.176V59.5156H118.79C118.79 59.1245 118.71 58.7782 118.551 58.4766C118.392 58.1716 118.168 57.9313 117.88 57.7557C117.595 57.58 117.26 57.4922 116.876 57.4922C116.458 57.4922 116.094 57.5949 115.782 57.8004C115.474 58.0026 115.235 58.2678 115.066 58.5959C114.9 58.9207 114.817 59.2737 114.817 59.6548V60.5249C114.817 61.0353 114.907 61.4695 115.086 61.8274C115.268 62.1854 115.522 62.4588 115.847 62.6477C116.171 62.8333 116.551 62.9261 116.985 62.9261C117.267 62.9261 117.524 62.8864 117.756 62.8068C117.988 62.724 118.188 62.6013 118.357 62.4389C118.526 62.2765 118.656 62.076 118.745 61.8374L120.152 62.0909C120.039 62.5052 119.837 62.8681 119.545 63.1797C119.257 63.4879 118.894 63.7282 118.457 63.9006C118.022 64.0696 117.527 64.1541 116.97 64.1541ZM121.896 64V56.3636H123.333V57.5767H123.412C123.551 57.1657 123.797 56.8426 124.148 56.6072C124.503 56.3686 124.904 56.2493 125.351 56.2493C125.444 56.2493 125.553 56.2526 125.679 56.2592C125.808 56.2659 125.91 56.2741 125.982 56.2841V57.706C125.923 57.6894 125.817 57.6712 125.664 57.6513C125.512 57.6281 125.359 57.6165 125.207 57.6165C124.856 57.6165 124.542 57.6911 124.267 57.8402C123.995 57.986 123.78 58.1899 123.621 58.4517C123.462 58.7102 123.382 59.0052 123.382 59.3366V64H121.896ZM130.212 64.1541C129.496 64.1541 128.871 63.9901 128.338 63.6619C127.804 63.3338 127.39 62.8748 127.095 62.2848C126.8 61.6948 126.652 61.0054 126.652 60.2166C126.652 59.4245 126.8 58.7318 127.095 58.1385C127.39 57.5452 127.804 57.0845 128.338 56.7564C128.871 56.4283 129.496 56.2642 130.212 56.2642C130.928 56.2642 131.553 56.4283 132.086 56.7564C132.62 57.0845 133.034 57.5452 133.329 58.1385C133.624 58.7318 133.772 59.4245 133.772 60.2166C133.772 61.0054 133.624 61.6948 133.329 62.2848C133.034 62.8748 132.62 63.3338 132.086 63.6619C131.553 63.9901 130.928 64.1541 130.212 64.1541ZM130.217 62.9062C130.681 62.9062 131.065 62.7836 131.37 62.5384C131.675 62.2931 131.901 61.9666 132.047 61.5589C132.196 61.1513 132.27 60.7022 132.27 60.2116C132.27 59.7244 132.196 59.277 132.047 58.8693C131.901 58.4583 131.675 58.1286 131.37 57.88C131.065 57.6314 130.681 57.5071 130.217 57.5071C129.75 57.5071 129.362 57.6314 129.054 57.88C128.749 58.1286 128.522 58.4583 128.373 58.8693C128.227 59.277 128.154 59.7244 128.154 60.2116C128.154 60.7022 128.227 61.1513 128.373 61.5589C128.522 61.9666 128.749 62.2931 129.054 62.5384C129.362 62.7836 129.75 62.9062 130.217 62.9062Z" fill="#4A5450"/>
<rect x="150" y="96" width="169" height="38" rx="19" fill="#1FAF84"/>
<path d="M173 122.5C177.142 122.5 180.5 119.142 180.5 115C180.5 110.858 177.142 107.5 173 107.5C168.858 107.5 165.5 110.858 165.5 115C165.5 119.142 168.858 122.5 173 122.5Z" stroke="white" stroke-width="1.66667" stroke-linecap="round" stroke-linejoin="round"/>
<path d="M165.5 115H180.5M173 107.5C174.764 109.601 175.73 112.257 175.73 115C175.73 117.743 174.764 120.399 173 122.5C171.236 120.399 170.27 117.743 170.27 115C170.27 112.257 171.236 109.601 173 107.5Z" stroke="white" stroke-width="1.66667" stroke-linecap="round" stroke-linejoin="round"/>
<path d="M189.119 120V109.818H190.655V114.68H190.779L195.05 109.818H196.984L192.877 114.402L196.999 120H195.149L191.858 115.451L190.655 116.833V120H189.119ZM199.783 115.466V120H198.296V109.818H199.763V113.607H199.857C200.036 113.196 200.31 112.869 200.678 112.627C201.045 112.385 201.526 112.264 202.119 112.264C202.643 112.264 203.1 112.372 203.491 112.587C203.886 112.803 204.191 113.124 204.406 113.552C204.625 113.976 204.734 114.506 204.734 115.143V120H203.248V115.322C203.248 114.762 203.104 114.327 202.815 114.019C202.527 113.708 202.126 113.552 201.612 113.552C201.261 113.552 200.946 113.626 200.668 113.776C200.393 113.925 200.175 114.143 200.016 114.432C199.861 114.717 199.783 115.062 199.783 115.466ZM209.935 120.154C209.219 120.154 208.594 119.99 208.06 119.662C207.527 119.334 207.112 118.875 206.817 118.285C206.522 117.695 206.375 117.005 206.375 116.217C206.375 115.424 206.522 114.732 206.817 114.138C207.112 113.545 207.527 113.085 208.06 112.756C208.594 112.428 209.219 112.264 209.935 112.264C210.651 112.264 211.275 112.428 211.809 112.756C212.343 113.085 212.757 113.545 213.052 114.138C213.347 114.732 213.494 115.424 213.494 116.217C213.494 117.005 213.347 117.695 213.052 118.285C212.757 118.875 212.343 119.334 211.809 119.662C211.275 119.99 210.651 120.154 209.935 120.154ZM209.94 118.906C210.404 118.906 210.788 118.784 211.093 118.538C211.398 118.293 211.623 117.967 211.769 117.559C211.918 117.151 211.993 116.702 211.993 116.212C211.993 115.724 211.918 115.277 211.769 114.869C211.623 114.458 211.398 114.129 211.093 113.88C210.788 113.631 210.404 113.507 209.94 113.507C209.472 113.507 209.085 113.631 208.776 113.88C208.471 114.129 208.244 114.458 208.095 114.869C207.949 115.277 207.876 115.724 207.876 116.212C207.876 116.702 207.949 117.151 208.095 117.559C208.244 117.967 208.471 118.293 208.776 118.538C209.085 118.784 209.472 118.906 209.94 118.906ZM218.445 120.154C217.692 120.154 217.044 119.993 216.501 119.672C215.961 119.347 215.543 118.891 215.248 118.305C214.956 117.715 214.811 117.024 214.811 116.232C214.811 115.449 214.956 114.76 215.248 114.163C215.543 113.567 215.954 113.101 216.481 112.766C217.011 112.432 217.631 112.264 218.34 112.264C218.771 112.264 219.189 112.335 219.593 112.478C219.998 112.621 220.36 112.844 220.682 113.149C221.003 113.454 221.257 113.85 221.443 114.337C221.628 114.821 221.721 115.41 221.721 116.102V116.629H215.651V115.516H220.264C220.264 115.125 220.185 114.778 220.026 114.477C219.867 114.172 219.643 113.931 219.355 113.756C219.07 113.58 218.735 113.492 218.35 113.492C217.933 113.492 217.568 113.595 217.257 113.8C216.948 114.003 216.71 114.268 216.541 114.596C216.375 114.921 216.292 115.274 216.292 115.655V116.525C216.292 117.035 216.382 117.469 216.561 117.827C216.743 118.185 216.996 118.459 217.321 118.648C217.646 118.833 218.026 118.926 218.46 118.926C218.741 118.926 218.998 118.886 219.23 118.807C219.462 118.724 219.663 118.601 219.832 118.439C220.001 118.277 220.13 118.076 220.22 117.837L221.627 118.091C221.514 118.505 221.312 118.868 221.02 119.18C220.732 119.488 220.369 119.728 219.931 119.901C219.497 120.07 219.002 120.154 218.445 120.154ZM224.738 117.41L224.728 115.595H224.986L228.029 112.364H229.809L226.338 116.043H226.105L224.738 117.41ZM223.37 120V109.818H224.857V120H223.37ZM228.193 120L225.458 116.371L226.483 115.332L230.017 120H228.193ZM232.65 115.466V120H231.163V109.818H232.63V113.607H232.724C232.903 113.196 233.177 112.869 233.545 112.627C233.913 112.385 234.393 112.264 234.987 112.264C235.51 112.264 235.968 112.372 236.359 112.587C236.753 112.803 237.058 113.124 237.273 113.552C237.492 113.976 237.602 114.506 237.602 115.143V120H236.115V115.322C236.115 114.762 235.971 114.327 235.683 114.019C235.394 113.708 234.993 113.552 234.479 113.552C234.128 113.552 233.813 113.626 233.535 113.776C233.26 113.925 233.043 114.143 232.884 114.432C232.728 114.717 232.65 115.062 232.65 115.466ZM242.802 120.154C242.086 120.154 241.461 119.99 240.928 119.662C240.394 119.334 239.98 118.875 239.685 118.285C239.39 117.695 239.242 117.005 239.242 116.217C239.242 115.424 239.39 114.732 239.685 114.138C239.98 113.545 240.394 113.085 240.928 112.756C241.461 112.428 242.086 112.264 242.802 112.264C243.518 112.264 244.143 112.428 244.676 112.756C245.21 113.085 245.624 113.545 245.919 114.138C246.214 114.732 246.362 115.424 246.362 116.217C246.362 117.005 246.214 117.695 245.919 118.285C245.624 118.875 245.21 119.334 244.676 119.662C244.143 119.99 243.518 120.154 242.802 120.154ZM242.807 118.906C243.271 118.906 243.655 118.784 243.96 118.538C244.265 118.293 244.491 117.967 244.636 117.559C244.786 117.151 244.86 116.702 244.86 116.212C244.86 115.724 244.786 115.277 244.636 114.869C244.491 114.458 244.265 114.129 243.96 113.88C243.655 113.631 243.271 113.507 242.807 113.507C242.339 113.507 241.952 113.631 241.643 113.88C241.339 114.129 241.112 114.458 240.962 114.869C240.817 115.277 240.744 115.724 240.744 116.212C240.744 116.702 240.817 117.151 240.962 117.559C241.112 117.967 241.339 118.293 241.643 118.538C241.952 118.784 242.339 118.906 242.807 118.906ZM251.312 120.154C250.56 120.154 249.912 119.993 249.368 119.672C248.828 119.347 248.41 118.891 248.115 118.305C247.824 117.715 247.678 117.024 247.678 116.232C247.678 115.449 247.824 114.76 248.115 114.163C248.41 113.567 248.821 113.101 249.348 112.766C249.878 112.432 250.498 112.264 251.208 112.264C251.638 112.264 252.056 112.335 252.46 112.478C252.865 112.621 253.228 112.844 253.549 113.149C253.871 113.454 254.124 113.85 254.31 114.337C254.495 114.821 254.588 115.41 254.588 116.102V116.629H248.518V115.516H253.132C253.132 115.125 253.052 114.778 252.893 114.477C252.734 114.172 252.51 113.931 252.222 113.756C251.937 113.58 251.602 113.492 251.218 113.492C250.8 113.492 250.435 113.595 250.124 113.8C249.816 114.003 249.577 114.268 249.408 114.596C249.242 114.921 249.159 115.274 249.159 115.655V116.525C249.159 117.035 249.249 117.469 249.428 117.827C249.61 118.185 249.864 118.459 250.188 118.648C250.513 118.833 250.893 118.926 251.327 118.926C251.609 118.926 251.865 118.886 252.097 118.807C252.329 118.724 252.53 118.601 252.699 118.439C252.868 118.277 252.997 118.076 253.087 117.837L254.494 118.091C254.381 118.505 254.179 118.868 253.887 119.18C253.599 119.488 253.236 119.728 252.798 119.901C252.364 120.07 251.869 120.154 251.312 120.154ZM259.439 123.023C258.833 123.023 258.311 122.943 257.873 122.784C257.439 122.625 257.084 122.415 256.809 122.153C256.534 121.891 256.329 121.604 256.193 121.293L257.471 120.766C257.56 120.911 257.679 121.066 257.828 121.228C257.981 121.394 258.186 121.535 258.445 121.651C258.707 121.767 259.043 121.825 259.454 121.825C260.018 121.825 260.483 121.687 260.851 121.412C261.219 121.14 261.403 120.706 261.403 120.109V118.608H261.309C261.219 118.77 261.09 118.951 260.921 119.15C260.755 119.349 260.526 119.521 260.235 119.667C259.943 119.813 259.564 119.886 259.096 119.886C258.493 119.886 257.949 119.745 257.466 119.463C256.985 119.178 256.604 118.759 256.322 118.205C256.044 117.648 255.904 116.964 255.904 116.152C255.904 115.34 256.042 114.644 256.317 114.064C256.596 113.484 256.977 113.04 257.461 112.732C257.944 112.42 258.493 112.264 259.106 112.264C259.58 112.264 259.963 112.344 260.255 112.503C260.546 112.659 260.773 112.841 260.936 113.05C261.101 113.259 261.229 113.442 261.319 113.602H261.428V112.364H262.885V120.169C262.885 120.825 262.732 121.364 262.427 121.785C262.122 122.206 261.71 122.517 261.189 122.719C260.672 122.922 260.089 123.023 259.439 123.023ZM259.424 118.653C259.852 118.653 260.213 118.553 260.508 118.354C260.806 118.152 261.032 117.864 261.184 117.489C261.34 117.112 261.418 116.659 261.418 116.132C261.418 115.618 261.342 115.166 261.189 114.775C261.037 114.384 260.813 114.079 260.518 113.86C260.223 113.638 259.859 113.527 259.424 113.527C258.977 113.527 258.604 113.643 258.306 113.875C258.007 114.104 257.782 114.415 257.63 114.81C257.48 115.204 257.406 115.645 257.406 116.132C257.406 116.633 257.482 117.072 257.635 117.45C257.787 117.827 258.012 118.122 258.311 118.335C258.612 118.547 258.984 118.653 259.424 118.653ZM268.095 120.154C267.379 120.154 266.754 119.99 266.221 119.662C265.687 119.334 265.273 118.875 264.978 118.285C264.683 117.695 264.535 117.005 264.535 116.217C264.535 115.424 264.683 114.732 264.978 114.138C265.273 113.545 265.687 113.085 266.221 112.756C266.754 112.428 267.379 112.264 268.095 112.264C268.811 112.264 269.435 112.428 269.969 112.756C270.503 113.085 270.917 113.545 271.212 114.138C271.507 114.732 271.654 115.424 271.654 116.217C271.654 117.005 271.507 117.695 271.212 118.285C270.917 118.875 270.503 119.334 269.969 119.662C269.435 119.99 268.811 120.154 268.095 120.154ZM268.1 118.906C268.564 118.906 268.948 118.784 269.253 118.538C269.558 118.293 269.783 117.967 269.929 117.559C270.078 117.151 270.153 116.702 270.153 116.212C270.153 115.724 270.078 115.277 269.929 114.869C269.783 114.458 269.558 114.129 269.253 113.88C268.948 113.631 268.564 113.507 268.1 113.507C267.632 113.507 267.245 113.631 266.936 113.88C266.632 114.129 266.404 114.458 266.255 114.869C266.109 115.277 266.037 115.724 266.037 116.212C266.037 116.702 266.109 117.151 266.255 117.559C266.404 117.967 266.632 118.293 266.936 118.538C267.245 118.784 267.632 118.906 268.1 118.906ZM274.737 120L272.49 112.364H274.026L275.522 117.972H275.597L277.098 112.364H278.635L280.126 117.947H280.201L281.687 112.364H283.223L280.981 120H279.465L277.914 114.487H277.799L276.248 120H274.737ZM286.856 120.169C286.372 120.169 285.935 120.08 285.544 119.901C285.153 119.718 284.843 119.455 284.614 119.11C284.389 118.765 284.276 118.343 284.276 117.842C284.276 117.411 284.359 117.057 284.525 116.778C284.69 116.5 284.914 116.28 285.196 116.117C285.478 115.955 285.792 115.832 286.14 115.749C286.488 115.666 286.843 115.603 287.204 115.56C287.662 115.507 288.033 115.464 288.318 115.431C288.603 115.395 288.81 115.337 288.939 115.257C289.069 115.178 289.133 115.048 289.133 114.869V114.835C289.133 114.4 289.011 114.064 288.765 113.825C288.523 113.587 288.162 113.467 287.682 113.467C287.181 113.467 286.787 113.578 286.498 113.8C286.213 114.019 286.016 114.263 285.907 114.531L284.51 114.213C284.675 113.749 284.917 113.375 285.236 113.089C285.557 112.801 285.927 112.592 286.344 112.463C286.762 112.33 287.201 112.264 287.662 112.264C287.967 112.264 288.29 112.301 288.631 112.374C288.976 112.443 289.297 112.572 289.596 112.761C289.897 112.95 290.144 113.22 290.336 113.572C290.529 113.92 290.625 114.372 290.625 114.929V120H289.173V118.956H289.113C289.017 119.148 288.873 119.337 288.681 119.523C288.489 119.708 288.242 119.862 287.94 119.985C287.639 120.108 287.277 120.169 286.856 120.169ZM287.18 118.976C287.59 118.976 287.942 118.895 288.233 118.732C288.528 118.57 288.752 118.358 288.905 118.096C289.06 117.831 289.138 117.547 289.138 117.246V116.261C289.085 116.314 288.983 116.364 288.83 116.411C288.681 116.454 288.51 116.492 288.318 116.525C288.126 116.555 287.939 116.583 287.756 116.609C287.574 116.633 287.421 116.652 287.299 116.669C287.01 116.705 286.747 116.767 286.508 116.853C286.273 116.939 286.084 117.063 285.942 117.226C285.802 117.385 285.733 117.597 285.733 117.862C285.733 118.23 285.869 118.509 286.14 118.697C286.412 118.883 286.759 118.976 287.18 118.976ZM292.724 120V109.818H294.211V113.602H294.3C294.386 113.442 294.511 113.259 294.673 113.05C294.835 112.841 295.061 112.659 295.349 112.503C295.637 112.344 296.019 112.264 296.493 112.264C297.109 112.264 297.659 112.42 298.143 112.732C298.627 113.043 299.007 113.492 299.282 114.079C299.56 114.665 299.699 115.371 299.699 116.197C299.699 117.022 299.562 117.73 299.287 118.32C299.011 118.906 298.634 119.359 298.153 119.677C297.672 119.992 297.124 120.149 296.507 120.149C296.043 120.149 295.664 120.071 295.369 119.915C295.077 119.76 294.849 119.577 294.683 119.369C294.517 119.16 294.39 118.974 294.3 118.812H294.176V120H292.724ZM294.181 116.182C294.181 116.719 294.259 117.189 294.414 117.594C294.57 117.998 294.796 118.315 295.091 118.543C295.386 118.769 295.747 118.881 296.174 118.881C296.618 118.881 296.99 118.764 297.288 118.528C297.586 118.29 297.812 117.967 297.964 117.559C298.12 117.151 298.198 116.692 298.198 116.182C298.198 115.678 298.122 115.226 297.969 114.825C297.82 114.424 297.595 114.107 297.293 113.875C296.995 113.643 296.622 113.527 296.174 113.527C295.743 113.527 295.379 113.638 295.081 113.86C294.786 114.082 294.562 114.392 294.409 114.79C294.257 115.187 294.181 115.652 294.181 116.182Z" fill="white"/>
<rect x="24.5" y="160.5" width="132" height="37" rx="18.5" fill="white"/>
<rect x="24.5" y="160.5" width="132" height="37" rx="18.5" stroke="#E4E7E5"/>
<path d="M47 186.5C51.1421 186.5 54.5 183.142 54.5 179C54.5 174.858 51.1421 171.5 47 171.5C42.8579 171.5 39.5 174.858 39.5 179C39.5 183.142 42.8579 186.5 47 186.5Z" stroke="#4A5450" stroke-width="1.66667" stroke-linecap="round" stroke-linejoin="round"/>
<path d="M39.5 179H54.5M47 171.5C48.7635 173.601 49.7302 176.257 49.7302 179C49.7302 181.743 48.7635 184.399 47 186.5C45.2365 184.399 44.2698 181.743 44.2698 179C44.2698 176.257 45.2365 173.601 47 171.5Z" stroke="#4A5450" stroke-width="1.66667" stroke-linecap="round" stroke-linejoin="round"/>
<path d="M63.1186 184V173.818H66.7479C67.5367 173.818 68.1913 173.954 68.7116 174.226C69.2353 174.498 69.6264 174.874 69.8849 175.354C70.1435 175.832 70.2727 176.384 70.2727 177.01C70.2727 177.633 70.1418 178.182 69.88 178.656C69.6214 179.126 69.2304 179.492 68.7067 179.754C68.1863 180.016 67.5317 180.147 66.7429 180.147H63.9936V178.825H66.6037C67.1009 178.825 67.5052 178.753 67.8168 178.611C68.1316 178.468 68.362 178.261 68.5078 177.989C68.6536 177.718 68.7266 177.391 68.7266 177.01C68.7266 176.625 68.652 176.292 68.5028 176.011C68.357 175.729 68.1267 175.513 67.8118 175.364C67.5002 175.212 67.0909 175.136 66.5838 175.136H64.6548V184H63.1186ZM68.1449 179.406L70.6605 184H68.9105L66.4446 179.406H68.1449ZM76.8601 180.833V176.364H78.3516V184H76.8899V182.678H76.8104C76.6347 183.085 76.353 183.425 75.9652 183.697C75.5807 183.965 75.1018 184.099 74.5284 184.099C74.0379 184.099 73.6037 183.992 73.2259 183.776C72.8513 183.558 72.5563 183.234 72.3409 182.807C72.1288 182.379 72.0227 181.851 72.0227 181.221V176.364H73.5092V181.042C73.5092 181.562 73.6534 181.977 73.9418 182.285C74.2301 182.593 74.6046 182.747 75.0653 182.747C75.3438 182.747 75.6205 182.678 75.8956 182.538C76.174 182.399 76.4044 182.189 76.5866 181.907C76.7723 181.625 76.8634 181.267 76.8601 180.833ZM81.7161 181.41L81.7061 179.595H81.9647L85.0073 176.364H86.7871L83.3169 180.043H83.0833L81.7161 181.41ZM80.3489 184V173.818H81.8354V184H80.3489ZM85.1713 184L82.437 180.371L83.4611 179.332L86.9959 184H85.1713ZM89.7974 184L87.5502 176.364H89.0865L90.5829 181.972H90.6575L92.1589 176.364H93.6951L95.1866 181.947H95.2612L96.7477 176.364H98.2839L96.0417 184H94.5254L92.9743 178.487H92.8599L91.3088 184H89.7974ZM101.917 184.169C101.433 184.169 100.996 184.08 100.604 183.901C100.213 183.718 99.9034 183.455 99.6747 183.11C99.4493 182.765 99.3366 182.343 99.3366 181.842C99.3366 181.411 99.4195 181.057 99.5852 180.778C99.7509 180.5 99.9747 180.28 100.256 180.117C100.538 179.955 100.853 179.832 101.201 179.749C101.549 179.666 101.904 179.603 102.265 179.56C102.722 179.507 103.094 179.464 103.379 179.431C103.664 179.395 103.871 179.337 104 179.257C104.129 179.178 104.194 179.048 104.194 178.869V178.835C104.194 178.4 104.071 178.064 103.826 177.825C103.584 177.587 103.223 177.467 102.742 177.467C102.242 177.467 101.847 177.578 101.559 177.8C101.274 178.019 101.077 178.263 100.967 178.531L99.5703 178.213C99.736 177.749 99.978 177.375 100.296 177.089C100.618 176.801 100.987 176.592 101.405 176.463C101.822 176.33 102.262 176.264 102.722 176.264C103.027 176.264 103.35 176.301 103.692 176.374C104.036 176.443 104.358 176.572 104.656 176.761C104.958 176.95 105.205 177.22 105.397 177.572C105.589 177.92 105.685 178.372 105.685 178.929V184H104.234V182.956H104.174C104.078 183.148 103.934 183.337 103.741 183.523C103.549 183.708 103.302 183.862 103.001 183.985C102.699 184.108 102.338 184.169 101.917 184.169ZM102.24 182.976C102.651 182.976 103.002 182.895 103.294 182.732C103.589 182.57 103.813 182.358 103.965 182.096C104.121 181.831 104.199 181.547 104.199 181.246V180.261C104.146 180.314 104.043 180.364 103.891 180.411C103.741 180.454 103.571 180.492 103.379 180.525C103.186 180.555 102.999 180.583 102.817 180.609C102.634 180.633 102.482 180.652 102.359 180.669C102.071 180.705 101.808 180.767 101.569 180.853C101.334 180.939 101.145 181.063 101.002 181.226C100.863 181.385 100.793 181.597 100.793 181.862C100.793 182.23 100.929 182.509 101.201 182.697C101.473 182.883 101.819 182.976 102.24 182.976ZM109.152 179.466V184H107.665V176.364H109.092V177.607H109.187C109.362 177.202 109.637 176.877 110.012 176.632C110.39 176.387 110.865 176.264 111.439 176.264C111.959 176.264 112.415 176.374 112.806 176.592C113.197 176.808 113.5 177.129 113.716 177.557C113.931 177.984 114.039 178.513 114.039 179.143V184H112.552V179.322C112.552 178.768 112.408 178.336 112.12 178.024C111.831 177.709 111.435 177.552 110.932 177.552C110.587 177.552 110.28 177.626 110.012 177.776C109.747 177.925 109.536 178.143 109.381 178.432C109.228 178.717 109.152 179.062 109.152 179.466ZM119.234 187.023C118.628 187.023 118.106 186.943 117.668 186.784C117.234 186.625 116.879 186.415 116.604 186.153C116.329 185.891 116.124 185.604 115.988 185.293L117.265 184.766C117.355 184.911 117.474 185.066 117.623 185.228C117.776 185.394 117.981 185.535 118.24 185.651C118.502 185.767 118.838 185.825 119.249 185.825C119.813 185.825 120.278 185.687 120.646 185.412C121.014 185.14 121.198 184.706 121.198 184.109V182.608H121.104C121.014 182.77 120.885 182.951 120.716 183.15C120.55 183.349 120.321 183.521 120.03 183.667C119.738 183.813 119.358 183.886 118.891 183.886C118.288 183.886 117.744 183.745 117.26 183.463C116.78 183.178 116.399 182.759 116.117 182.205C115.839 181.648 115.699 180.964 115.699 180.152C115.699 179.34 115.837 178.644 116.112 178.064C116.39 177.484 116.772 177.04 117.256 176.732C117.739 176.42 118.288 176.264 118.901 176.264C119.375 176.264 119.758 176.344 120.05 176.503C120.341 176.659 120.568 176.841 120.731 177.05C120.896 177.259 121.024 177.442 121.113 177.602H121.223V176.364H122.68V184.169C122.68 184.825 122.527 185.364 122.222 185.785C121.917 186.206 121.505 186.517 120.984 186.719C120.467 186.922 119.884 187.023 119.234 187.023ZM119.219 182.653C119.647 182.653 120.008 182.553 120.303 182.354C120.601 182.152 120.827 181.864 120.979 181.489C121.135 181.112 121.213 180.659 121.213 180.132C121.213 179.618 121.137 179.166 120.984 178.775C120.832 178.384 120.608 178.079 120.313 177.86C120.018 177.638 119.653 177.527 119.219 177.527C118.772 177.527 118.399 177.643 118.101 177.875C117.802 178.104 117.577 178.415 117.425 178.81C117.275 179.204 117.201 179.645 117.201 180.132C117.201 180.633 117.277 181.072 117.43 181.45C117.582 181.827 117.807 182.122 118.106 182.335C118.407 182.547 118.778 182.653 119.219 182.653ZM126.895 184.169C126.412 184.169 125.974 184.08 125.583 183.901C125.192 183.718 124.882 183.455 124.653 183.11C124.428 182.765 124.315 182.343 124.315 181.842C124.315 181.411 124.398 181.057 124.564 180.778C124.729 180.5 124.953 180.28 125.235 180.117C125.517 179.955 125.831 179.832 126.18 179.749C126.528 179.666 126.882 179.603 127.243 179.56C127.701 179.507 128.072 179.464 128.357 179.431C128.642 179.395 128.849 179.337 128.979 179.257C129.108 179.178 129.172 179.048 129.172 178.869V178.835C129.172 178.4 129.05 178.064 128.805 177.825C128.563 177.587 128.201 177.467 127.721 177.467C127.22 177.467 126.826 177.578 126.537 177.8C126.252 178.019 126.055 178.263 125.946 178.531L124.549 178.213C124.715 177.749 124.956 177.375 125.275 177.089C125.596 176.801 125.966 176.592 126.383 176.463C126.801 176.33 127.24 176.264 127.701 176.264C128.006 176.264 128.329 176.301 128.67 176.374C129.015 176.443 129.336 176.572 129.635 176.761C129.936 176.95 130.183 177.22 130.376 177.572C130.568 177.92 130.664 178.372 130.664 178.929V184H129.212V182.956H129.153C129.056 183.148 128.912 183.337 128.72 183.523C128.528 183.708 128.281 183.862 127.979 183.985C127.678 184.108 127.316 184.169 126.895 184.169ZM127.219 182.976C127.63 182.976 127.981 182.895 128.273 182.732C128.568 182.57 128.791 182.358 128.944 182.096C129.099 181.831 129.177 181.547 129.177 181.246V180.261C129.124 180.314 129.022 180.364 128.869 180.411C128.72 180.454 128.549 180.492 128.357 180.525C128.165 180.555 127.978 180.583 127.795 180.609C127.613 180.633 127.461 180.652 127.338 180.669C127.05 180.705 126.786 180.767 126.547 180.853C126.312 180.939 126.123 181.063 125.981 181.226C125.841 181.385 125.772 181.597 125.772 181.862C125.772 182.23 125.908 182.509 126.18 182.697C126.451 182.883 126.798 182.976 127.219 182.976ZM134.13 173.818V184H132.644V173.818H134.13ZM136.13 184V176.364H137.617V184H136.13ZM136.881 175.185C136.622 175.185 136.4 175.099 136.215 174.927C136.032 174.751 135.941 174.542 135.941 174.3C135.941 174.055 136.032 173.846 136.215 173.674C136.4 173.498 136.622 173.411 136.881 173.411C137.139 173.411 137.36 173.498 137.542 173.674C137.728 173.846 137.82 174.055 137.82 174.3C137.82 174.542 137.728 174.751 137.542 174.927C137.36 175.099 137.139 175.185 136.881 175.185Z" fill="#4A5450"/>
<rect x="200.5" y="214.5" width="91" height="37" rx="18.5" fill="white"/>
<rect x="200.5" y="214.5" width="91" height="37" rx="18.5" stroke="#E4E7E5"/>
<path d="M223 240.5C227.142 240.5 230.5 237.142 230.5 233C230.5 228.858 227.142 225.5 223 225.5C218.858 225.5 215.5 228.858 215.5 233C215.5 237.142 218.858 240.5 223 240.5Z" stroke="#4A5450" stroke-width="1.66667" stroke-linecap="round" stroke-linejoin="round"/>
<path d="M215.5 233H230.5M223 225.5C224.764 227.601 225.73 230.257 225.73 233C225.73 235.743 224.764 238.399 223 240.5C221.236 238.399 220.27 235.743 220.27 233C220.27 230.257 221.236 227.601 223 225.5Z" stroke="#4A5450" stroke-width="1.66667" stroke-linecap="round" stroke-linejoin="round"/>
<path d="M244.672 230.493C244.619 230.022 244.4 229.658 244.016 229.399C243.631 229.137 243.147 229.006 242.564 229.006C242.146 229.006 241.785 229.073 241.48 229.205C241.175 229.335 240.938 229.513 240.769 229.742C240.603 229.968 240.521 230.224 240.521 230.513C240.521 230.755 240.577 230.964 240.69 231.139C240.806 231.315 240.956 231.462 241.142 231.582C241.331 231.698 241.533 231.795 241.749 231.875C241.964 231.951 242.171 232.014 242.37 232.064L243.364 232.322C243.689 232.402 244.022 232.51 244.364 232.646C244.705 232.781 245.022 232.96 245.313 233.183C245.605 233.405 245.84 233.68 246.019 234.008C246.201 234.336 246.293 234.729 246.293 235.186C246.293 235.763 246.143 236.275 245.845 236.722C245.55 237.17 245.121 237.523 244.558 237.781C243.997 238.04 243.32 238.169 242.524 238.169C241.762 238.169 241.102 238.048 240.545 237.806C239.989 237.564 239.553 237.221 239.238 236.777C238.923 236.33 238.749 235.799 238.716 235.186H240.257C240.287 235.554 240.406 235.861 240.615 236.106C240.827 236.348 241.097 236.528 241.425 236.648C241.757 236.764 242.12 236.822 242.514 236.822C242.948 236.822 243.335 236.754 243.673 236.618C244.014 236.479 244.282 236.286 244.478 236.041C244.674 235.793 244.771 235.503 244.771 235.171C244.771 234.87 244.685 234.623 244.513 234.43C244.344 234.238 244.113 234.079 243.822 233.953C243.533 233.827 243.207 233.716 242.842 233.62L241.639 233.292C240.824 233.07 240.178 232.743 239.7 232.312C239.226 231.882 238.989 231.312 238.989 230.602C238.989 230.016 239.148 229.504 239.467 229.066C239.785 228.629 240.216 228.289 240.759 228.047C241.303 227.802 241.916 227.679 242.599 227.679C243.288 227.679 243.896 227.8 244.423 228.042C244.954 228.284 245.371 228.617 245.676 229.041C245.981 229.462 246.14 229.946 246.153 230.493H244.672ZM248.009 238V230.364H249.496V238H248.009ZM248.76 229.185C248.501 229.185 248.279 229.099 248.094 228.927C247.911 228.751 247.82 228.542 247.82 228.3C247.82 228.055 247.911 227.846 248.094 227.674C248.279 227.498 248.501 227.411 248.76 227.411C249.018 227.411 249.239 227.498 249.421 227.674C249.607 227.846 249.699 228.055 249.699 228.3C249.699 228.542 249.607 228.751 249.421 228.927C249.239 229.099 249.018 229.185 248.76 229.185ZM252.982 227.818V238H251.495V227.818H252.982ZM258.198 238.154C257.482 238.154 256.858 237.99 256.324 237.662C255.79 237.334 255.376 236.875 255.081 236.285C254.786 235.695 254.639 235.005 254.639 234.217C254.639 233.424 254.786 232.732 255.081 232.138C255.376 231.545 255.79 231.085 256.324 230.756C256.858 230.428 257.482 230.264 258.198 230.264C258.914 230.264 259.539 230.428 260.073 230.756C260.606 231.085 261.021 231.545 261.316 232.138C261.61 232.732 261.758 233.424 261.758 234.217C261.758 235.005 261.61 235.695 261.316 236.285C261.021 236.875 260.606 237.334 260.073 237.662C259.539 237.99 258.914 238.154 258.198 238.154ZM258.203 236.906C258.667 236.906 259.052 236.784 259.357 236.538C259.662 236.293 259.887 235.967 260.033 235.559C260.182 235.151 260.257 234.702 260.257 234.212C260.257 233.724 260.182 233.277 260.033 232.869C259.887 232.458 259.662 232.129 259.357 231.88C259.052 231.631 258.667 231.507 258.203 231.507C257.736 231.507 257.348 231.631 257.04 231.88C256.735 232.129 256.508 232.458 256.359 232.869C256.213 233.277 256.14 233.724 256.14 234.212C256.14 234.702 256.213 235.151 256.359 235.559C256.508 235.967 256.735 236.293 257.04 236.538C257.348 236.784 257.736 236.906 258.203 236.906ZM263.258 238V236.981L267.395 231.726V231.656H263.392V230.364H269.249V231.447L265.272 236.638V236.707H269.388V238H263.258ZM271.142 238V230.364H272.628V238H271.142ZM271.893 229.185C271.634 229.185 271.412 229.099 271.226 228.927C271.044 228.751 270.953 228.542 270.953 228.3C270.953 228.055 271.044 227.846 271.226 227.674C271.412 227.498 271.634 227.411 271.893 227.411C272.151 227.411 272.372 227.498 272.554 227.674C272.739 227.846 272.832 228.055 272.832 228.3C272.832 228.542 272.739 228.751 272.554 228.927C272.372 229.099 272.151 229.185 271.893 229.185Z" fill="#4A5450"/>
<rect x="40.5" y="268.5" width="119" height="37" rx="18.5" fill="white"/>
<rect x="40.5" y="268.5" width="119" height="37" rx="18.5" stroke="#E4E7E5"/>
<path d="M63 294.5C67.1421 294.5 70.5 291.142 70.5 287C70.5 282.858 67.1421 279.5 63 279.5C58.8579 279.5 55.5 282.858 55.5 287C55.5 291.142 58.8579 294.5 63 294.5Z" stroke="#4A5450" stroke-width="1.66667" stroke-linecap="round" stroke-linejoin="round"/>
<path d="M55.5 287H70.5M63 279.5C64.7635 281.601 65.7302 284.257 65.7302 287C65.7302 289.743 64.7635 292.399 63 294.5C61.2365 292.399 60.2698 289.743 60.2698 287C60.2698 284.257 61.2365 281.601 63 279.5Z" stroke="#4A5450" stroke-width="1.66667" stroke-linecap="round" stroke-linejoin="round"/>
<path d="M79.9787 292H78.348L82.0121 281.818H83.7869L87.451 292H85.8203L82.9418 283.668H82.8622L79.9787 292ZM80.2521 288.013H85.5419V289.305H80.2521V288.013ZM92.3952 284.364V285.557H88.0799V284.364H92.3952ZM89.2631 292V283.479C89.2631 283.001 89.3675 282.605 89.5763 282.29C89.7852 281.972 90.0619 281.735 90.4066 281.58C90.7513 281.42 91.1258 281.341 91.5302 281.341C91.8285 281.341 92.0837 281.366 92.2958 281.415C92.5079 281.462 92.6654 281.505 92.7681 281.545L92.4201 282.748C92.3505 282.728 92.261 282.705 92.1516 282.678C92.0423 282.648 91.9097 282.634 91.7539 282.634C91.3926 282.634 91.1341 282.723 90.9783 282.902C90.8259 283.081 90.7496 283.339 90.7496 283.678V292H89.2631ZM93.929 292V284.364H95.3658V285.577H95.4453C95.5845 285.166 95.8298 284.843 96.1811 284.607C96.5357 284.369 96.9368 284.249 97.3842 284.249C97.477 284.249 97.5864 284.253 97.7124 284.259C97.8416 284.266 97.9427 284.274 98.0156 284.284V285.706C97.956 285.689 97.8499 285.671 97.6974 285.651C97.545 285.628 97.3925 285.616 97.2401 285.616C96.8887 285.616 96.5755 285.691 96.3004 285.84C96.0286 285.986 95.8132 286.19 95.6541 286.452C95.495 286.71 95.4155 287.005 95.4155 287.337V292H93.929ZM99.302 292V284.364H100.789V292H99.302ZM100.053 283.185C99.7942 283.185 99.5721 283.099 99.3865 282.927C99.2042 282.751 99.1131 282.542 99.1131 282.3C99.1131 282.055 99.2042 281.846 99.3865 281.674C99.5721 281.498 99.7942 281.411 100.053 281.411C100.311 281.411 100.532 281.498 100.714 281.674C100.9 281.846 100.992 282.055 100.992 282.3C100.992 282.542 100.9 282.751 100.714 282.927C100.532 283.099 100.311 283.185 100.053 283.185ZM104.156 289.41L104.146 287.595H104.404L107.447 284.364H109.227L105.756 288.043H105.523L104.156 289.41ZM102.788 292V281.818H104.275V292H102.788ZM107.611 292L104.876 288.371L105.901 287.332L109.435 292H107.611ZM112.804 292.169C112.32 292.169 111.882 292.08 111.491 291.901C111.1 291.718 110.79 291.455 110.561 291.11C110.336 290.765 110.223 290.343 110.223 289.842C110.223 289.411 110.306 289.057 110.472 288.778C110.638 288.5 110.861 288.28 111.143 288.117C111.425 287.955 111.74 287.832 112.088 287.749C112.436 287.666 112.79 287.603 113.152 287.56C113.609 287.507 113.98 287.464 114.265 287.431C114.55 287.395 114.757 287.337 114.887 287.257C115.016 287.178 115.081 287.048 115.081 286.869V286.835C115.081 286.4 114.958 286.064 114.713 285.825C114.471 285.587 114.109 285.467 113.629 285.467C113.128 285.467 112.734 285.578 112.446 285.8C112.161 286.019 111.963 286.263 111.854 286.531L110.457 286.213C110.623 285.749 110.865 285.375 111.183 285.089C111.504 284.801 111.874 284.592 112.292 284.463C112.709 284.33 113.148 284.264 113.609 284.264C113.914 284.264 114.237 284.301 114.578 284.374C114.923 284.443 115.245 284.572 115.543 284.761C115.845 284.95 116.092 285.22 116.284 285.572C116.476 285.92 116.572 286.372 116.572 286.929V292H115.12V290.956H115.061C114.965 291.148 114.82 291.337 114.628 291.523C114.436 291.708 114.189 291.862 113.887 291.985C113.586 292.108 113.225 292.169 112.804 292.169ZM113.127 290.976C113.538 290.976 113.889 290.895 114.181 290.732C114.476 290.57 114.699 290.358 114.852 290.096C115.008 289.831 115.086 289.547 115.086 289.246V288.261C115.033 288.314 114.93 288.364 114.777 288.411C114.628 288.454 114.458 288.492 114.265 288.525C114.073 288.555 113.886 288.583 113.703 288.609C113.521 288.633 113.369 288.652 113.246 288.669C112.958 288.705 112.694 288.767 112.456 288.853C112.22 288.939 112.031 289.063 111.889 289.226C111.75 289.385 111.68 289.597 111.68 289.862C111.68 290.23 111.816 290.509 112.088 290.697C112.359 290.883 112.706 290.976 113.127 290.976ZM120.774 292.169C120.29 292.169 119.853 292.08 119.462 291.901C119.071 291.718 118.761 291.455 118.532 291.11C118.307 290.765 118.194 290.343 118.194 289.842C118.194 289.411 118.277 289.057 118.443 288.778C118.608 288.5 118.832 288.28 119.114 288.117C119.396 287.955 119.71 287.832 120.058 287.749C120.406 287.666 120.761 287.603 121.122 287.56C121.58 287.507 121.951 287.464 122.236 287.431C122.521 287.395 122.728 287.337 122.857 287.257C122.987 287.178 123.051 287.048 123.051 286.869V286.835C123.051 286.4 122.929 286.064 122.683 285.825C122.441 285.587 122.08 285.467 121.6 285.467C121.099 285.467 120.705 285.578 120.416 285.8C120.131 286.019 119.934 286.263 119.825 286.531L118.428 286.213C118.593 285.749 118.835 285.375 119.154 285.089C119.475 284.801 119.845 284.592 120.262 284.463C120.68 284.33 121.119 284.264 121.58 284.264C121.885 284.264 122.208 284.301 122.549 284.374C122.894 284.443 123.215 284.572 123.514 284.761C123.815 284.95 124.062 285.22 124.254 285.572C124.447 285.92 124.543 286.372 124.543 286.929V292H123.091V290.956H123.031C122.935 291.148 122.791 291.337 122.599 291.523C122.407 291.708 122.16 291.862 121.858 291.985C121.557 292.108 121.195 292.169 120.774 292.169ZM121.097 290.976C121.508 290.976 121.86 290.895 122.151 290.732C122.446 290.57 122.67 290.358 122.823 290.096C122.978 289.831 123.056 289.547 123.056 289.246V288.261C123.003 288.314 122.901 288.364 122.748 288.411C122.599 288.454 122.428 288.492 122.236 288.525C122.044 288.555 121.856 288.583 121.674 288.609C121.492 288.633 121.339 288.652 121.217 288.669C120.928 288.705 120.665 288.767 120.426 288.853C120.191 288.939 120.002 289.063 119.86 289.226C119.72 289.385 119.651 289.597 119.651 289.862C119.651 290.23 119.787 290.509 120.058 290.697C120.33 290.883 120.677 290.976 121.097 290.976ZM128.009 287.466V292H126.523V284.364H127.95V285.607H128.044C128.22 285.202 128.495 284.877 128.869 284.632C129.247 284.387 129.723 284.264 130.296 284.264C130.817 284.264 131.272 284.374 131.663 284.592C132.054 284.808 132.358 285.129 132.573 285.557C132.789 285.984 132.896 286.513 132.896 287.143V292H131.41V287.322C131.41 286.768 131.266 286.336 130.977 286.024C130.689 285.709 130.293 285.552 129.789 285.552C129.444 285.552 129.138 285.626 128.869 285.776C128.604 285.925 128.394 286.143 128.238 286.432C128.085 286.717 128.009 287.062 128.009 287.466ZM140.612 286.228L139.265 286.467C139.209 286.294 139.119 286.13 138.996 285.974C138.877 285.819 138.715 285.691 138.509 285.592C138.304 285.492 138.047 285.442 137.739 285.442C137.318 285.442 136.966 285.537 136.685 285.726C136.403 285.911 136.262 286.152 136.262 286.447C136.262 286.702 136.357 286.907 136.545 287.063C136.734 287.219 137.039 287.347 137.46 287.446L138.673 287.724C139.376 287.887 139.9 288.137 140.244 288.475C140.589 288.813 140.761 289.252 140.761 289.793C140.761 290.25 140.629 290.658 140.364 291.016C140.102 291.37 139.736 291.649 139.265 291.851C138.798 292.053 138.256 292.154 137.639 292.154C136.784 292.154 136.086 291.972 135.546 291.607C135.006 291.239 134.674 290.717 134.552 290.041L135.989 289.822C136.078 290.197 136.262 290.48 136.54 290.673C136.819 290.862 137.182 290.956 137.629 290.956C138.116 290.956 138.506 290.855 138.798 290.653C139.089 290.447 139.235 290.197 139.235 289.902C139.235 289.663 139.146 289.463 138.967 289.3C138.791 289.138 138.521 289.015 138.156 288.933L136.864 288.649C136.151 288.487 135.624 288.228 135.283 287.874C134.945 287.519 134.776 287.07 134.776 286.526C134.776 286.076 134.902 285.681 135.153 285.343C135.405 285.005 135.753 284.741 136.197 284.553C136.642 284.36 137.15 284.264 137.724 284.264C138.549 284.264 139.199 284.443 139.673 284.801C140.147 285.156 140.46 285.631 140.612 286.228Z" fill="#4A5450"/>
<rect x="190.5" y="322.5" width="111" height="37" rx="18.5" fill="white"/>
<rect x="190.5" y="322.5" width="111" height="37" rx="18.5" stroke="#E4E7E5"/>
<path d="M213 348.5C217.142 348.5 220.5 345.142 220.5 341C220.5 336.858 217.142 333.5 213 333.5C208.858 333.5 205.5 336.858 205.5 341C205.5 345.142 208.858 348.5 213 348.5Z" stroke="#4A5450" stroke-width="1.66667" stroke-linecap="round" stroke-linejoin="round"/>
<path d="M205.5 341H220.5M213 333.5C214.764 335.601 215.73 338.257 215.73 341C215.73 343.743 214.764 346.399 213 348.5C211.236 346.399 210.27 343.743 210.27 341C210.27 338.257 211.236 335.601 213 333.5Z" stroke="#4A5450" stroke-width="1.66667" stroke-linecap="round" stroke-linejoin="round"/>
<path d="M232.415 346H229.119V335.818H232.519C233.517 335.818 234.374 336.022 235.089 336.43C235.805 336.834 236.354 337.416 236.735 338.175C237.12 338.93 237.312 339.837 237.312 340.894C237.312 341.955 237.118 342.866 236.73 343.629C236.346 344.391 235.789 344.978 235.06 345.388C234.33 345.796 233.449 346 232.415 346ZM230.655 344.658H232.33C233.106 344.658 233.75 344.512 234.264 344.22C234.778 343.925 235.162 343.499 235.418 342.942C235.673 342.382 235.8 341.7 235.8 340.894C235.8 340.095 235.673 339.418 235.418 338.861C235.166 338.304 234.79 337.881 234.289 337.593C233.789 337.305 233.167 337.161 232.425 337.161H230.655V344.658ZM242.394 346.154C241.642 346.154 240.994 345.993 240.45 345.672C239.91 345.347 239.492 344.891 239.197 344.305C238.906 343.715 238.76 343.024 238.76 342.232C238.76 341.449 238.906 340.76 239.197 340.163C239.492 339.567 239.903 339.101 240.43 338.766C240.961 338.432 241.58 338.264 242.29 338.264C242.72 338.264 243.138 338.335 243.542 338.478C243.947 338.621 244.31 338.844 244.631 339.149C244.953 339.454 245.206 339.85 245.392 340.337C245.577 340.821 245.67 341.41 245.67 342.102V342.629H239.6V341.516H244.214C244.214 341.125 244.134 340.778 243.975 340.477C243.816 340.172 243.592 339.931 243.304 339.756C243.019 339.58 242.684 339.492 242.3 339.492C241.882 339.492 241.517 339.595 241.206 339.8C240.898 340.003 240.659 340.268 240.49 340.596C240.324 340.921 240.241 341.274 240.241 341.655V342.525C240.241 343.035 240.331 343.469 240.51 343.827C240.692 344.185 240.946 344.459 241.27 344.648C241.595 344.833 241.975 344.926 242.409 344.926C242.691 344.926 242.948 344.886 243.18 344.807C243.412 344.724 243.612 344.601 243.781 344.439C243.95 344.277 244.079 344.076 244.169 343.837L245.576 344.091C245.463 344.505 245.261 344.868 244.969 345.18C244.681 345.488 244.318 345.728 243.881 345.901C243.446 346.07 242.951 346.154 242.394 346.154ZM252.157 342.833V338.364H253.648V346H252.187V344.678H252.107C251.932 345.085 251.65 345.425 251.262 345.697C250.878 345.965 250.399 346.099 249.825 346.099C249.335 346.099 248.901 345.992 248.523 345.776C248.148 345.558 247.853 345.234 247.638 344.807C247.426 344.379 247.32 343.851 247.32 343.221V338.364H248.806V343.042C248.806 343.562 248.95 343.977 249.239 344.285C249.527 344.593 249.902 344.747 250.362 344.747C250.641 344.747 250.917 344.678 251.192 344.538C251.471 344.399 251.701 344.189 251.884 343.907C252.069 343.625 252.16 343.267 252.157 342.833ZM259.21 338.364V339.557H255.039V338.364H259.21ZM256.158 336.534H257.644V343.758C257.644 344.046 257.687 344.263 257.774 344.409C257.86 344.552 257.971 344.649 258.107 344.702C258.246 344.752 258.397 344.777 258.559 344.777C258.678 344.777 258.783 344.769 258.872 344.752C258.962 344.736 259.031 344.722 259.081 344.712L259.35 345.94C259.263 345.973 259.141 346.007 258.982 346.04C258.823 346.076 258.624 346.096 258.385 346.099C257.994 346.106 257.629 346.036 257.291 345.891C256.953 345.745 256.68 345.519 256.471 345.214C256.262 344.91 256.158 344.527 256.158 344.066V336.534ZM266.454 340.228L265.107 340.467C265.05 340.294 264.961 340.13 264.838 339.974C264.719 339.819 264.557 339.691 264.351 339.592C264.146 339.492 263.889 339.442 263.58 339.442C263.16 339.442 262.808 339.537 262.526 339.726C262.245 339.911 262.104 340.152 262.104 340.447C262.104 340.702 262.198 340.907 262.387 341.063C262.576 341.219 262.881 341.347 263.302 341.446L264.515 341.724C265.218 341.887 265.741 342.137 266.086 342.475C266.431 342.813 266.603 343.252 266.603 343.793C266.603 344.25 266.471 344.658 266.205 345.016C265.944 345.37 265.577 345.649 265.107 345.851C264.639 346.053 264.097 346.154 263.481 346.154C262.626 346.154 261.928 345.972 261.388 345.607C260.848 345.239 260.516 344.717 260.394 344.041L261.83 343.822C261.92 344.197 262.104 344.48 262.382 344.673C262.661 344.862 263.024 344.956 263.471 344.956C263.958 344.956 264.348 344.855 264.639 344.653C264.931 344.447 265.077 344.197 265.077 343.902C265.077 343.663 264.987 343.463 264.808 343.3C264.633 343.138 264.363 343.015 263.998 342.933L262.705 342.649C261.993 342.487 261.466 342.228 261.124 341.874C260.786 341.519 260.617 341.07 260.617 340.526C260.617 340.076 260.743 339.681 260.995 339.343C261.247 339.005 261.595 338.741 262.039 338.553C262.483 338.36 262.992 338.264 263.566 338.264C264.391 338.264 265.04 338.443 265.514 338.801C265.988 339.156 266.302 339.631 266.454 340.228ZM271.454 346.154C270.715 346.154 270.079 345.987 269.545 345.652C269.015 345.314 268.607 344.848 268.322 344.255C268.037 343.662 267.895 342.982 267.895 342.217C267.895 341.441 268.04 340.757 268.332 340.163C268.624 339.567 269.035 339.101 269.565 338.766C270.095 338.432 270.72 338.264 271.439 338.264C272.019 338.264 272.536 338.372 272.99 338.587C273.444 338.799 273.811 339.098 274.089 339.482C274.371 339.867 274.538 340.316 274.591 340.83H273.145C273.065 340.472 272.883 340.163 272.598 339.905C272.316 339.646 271.938 339.517 271.464 339.517C271.05 339.517 270.687 339.626 270.375 339.845C270.067 340.061 269.827 340.369 269.654 340.77C269.482 341.168 269.396 341.638 269.396 342.182C269.396 342.739 269.48 343.219 269.65 343.624C269.819 344.028 270.057 344.341 270.365 344.563C270.677 344.785 271.043 344.896 271.464 344.896C271.746 344.896 272.001 344.845 272.23 344.742C272.462 344.636 272.656 344.485 272.811 344.29C272.971 344.094 273.082 343.859 273.145 343.584H274.591C274.538 344.078 274.377 344.518 274.109 344.906C273.841 345.294 273.481 345.599 273.03 345.821C272.583 346.043 272.057 346.154 271.454 346.154ZM277.667 341.466V346H276.181V335.818H277.648V339.607H277.742C277.921 339.196 278.194 338.869 278.562 338.627C278.93 338.385 279.411 338.264 280.004 338.264C280.528 338.264 280.985 338.372 281.376 338.587C281.771 338.803 282.076 339.124 282.291 339.552C282.51 339.976 282.619 340.506 282.619 341.143V346H281.133V341.322C281.133 340.762 280.988 340.327 280.7 340.019C280.412 339.708 280.011 339.552 279.497 339.552C279.146 339.552 278.831 339.626 278.552 339.776C278.277 339.925 278.06 340.143 277.901 340.432C277.745 340.717 277.667 341.062 277.667 341.466Z" fill="#4A5450"/>
<rect x="96.5" y="214.5" width="104" height="37" rx="18.5" fill="white"/>
<rect x="96.5" y="214.5" width="104" height="37" rx="18.5" stroke="#E4E7E5"/>
<path d="M119 240.5C123.142 240.5 126.5 237.142 126.5 233C126.5 228.858 123.142 225.5 119 225.5C114.858 225.5 111.5 228.858 111.5 233C111.5 237.142 114.858 240.5 119 240.5Z" stroke="#4A5450" stroke-width="1.66667" stroke-linecap="round" stroke-linejoin="round"/>
<path d="M111.5 233H126.5M119 225.5C120.764 227.601 121.73 230.257 121.73 233C121.73 235.743 120.764 238.399 119 240.5C117.236 238.399 116.27 235.743 116.27 233C116.27 230.257 117.236 227.601 119 225.5Z" stroke="#4A5450" stroke-width="1.66667" stroke-linecap="round" stroke-linejoin="round"/>
<path d="M135.119 238V227.818H141.502V229.141H136.655V232.243H141.169V233.56H136.655V236.678H141.562V238H135.119ZM144.921 233.466V238H143.435V230.364H144.862V231.607H144.956C145.132 231.202 145.407 230.877 145.781 230.632C146.159 230.387 146.635 230.264 147.208 230.264C147.729 230.264 148.184 230.374 148.575 230.592C148.967 230.808 149.27 231.129 149.485 231.557C149.701 231.984 149.808 232.513 149.808 233.143V238H148.322V233.322C148.322 232.768 148.178 232.336 147.889 232.024C147.601 231.709 147.205 231.552 146.701 231.552C146.356 231.552 146.05 231.626 145.781 231.776C145.516 231.925 145.306 232.143 145.15 232.432C144.998 232.717 144.921 233.062 144.921 233.466ZM155.004 241.023C154.397 241.023 153.875 240.943 153.438 240.784C153.003 240.625 152.649 240.415 152.374 240.153C152.099 239.891 151.893 239.604 151.757 239.293L153.035 238.766C153.124 238.911 153.244 239.066 153.393 239.228C153.545 239.394 153.751 239.535 154.009 239.651C154.271 239.767 154.608 239.825 155.019 239.825C155.582 239.825 156.048 239.687 156.416 239.412C156.784 239.14 156.968 238.706 156.968 238.109V236.608H156.873C156.784 236.77 156.654 236.951 156.485 237.15C156.32 237.349 156.091 237.521 155.799 237.667C155.508 237.813 155.128 237.886 154.661 237.886C154.057 237.886 153.514 237.745 153.03 237.463C152.549 237.178 152.168 236.759 151.887 236.205C151.608 235.648 151.469 234.964 151.469 234.152C151.469 233.34 151.606 232.644 151.882 232.064C152.16 231.484 152.541 231.04 153.025 230.732C153.509 230.42 154.057 230.264 154.671 230.264C155.145 230.264 155.527 230.344 155.819 230.503C156.111 230.659 156.338 230.841 156.5 231.05C156.666 231.259 156.794 231.442 156.883 231.602H156.992V230.364H158.449V238.169C158.449 238.825 158.297 239.364 157.992 239.785C157.687 240.206 157.274 240.517 156.754 240.719C156.237 240.922 155.653 241.023 155.004 241.023ZM154.989 236.653C155.416 236.653 155.778 236.553 156.073 236.354C156.371 236.152 156.596 235.864 156.749 235.489C156.905 235.112 156.982 234.659 156.982 234.132C156.982 233.618 156.906 233.166 156.754 232.775C156.601 232.384 156.378 232.079 156.083 231.86C155.788 231.638 155.423 231.527 154.989 231.527C154.541 231.527 154.169 231.643 153.87 231.875C153.572 232.104 153.347 232.415 153.194 232.81C153.045 233.204 152.97 233.645 152.97 234.132C152.97 234.633 153.047 235.072 153.199 235.45C153.352 235.827 153.577 236.122 153.875 236.335C154.177 236.547 154.548 236.653 154.989 236.653ZM161.929 227.818V238H160.443V227.818H161.929ZM163.929 238V230.364H165.415V238H163.929ZM164.68 229.185C164.421 229.185 164.199 229.099 164.013 228.927C163.831 228.751 163.74 228.542 163.74 228.3C163.74 228.055 163.831 227.846 164.013 227.674C164.199 227.498 164.421 227.411 164.68 227.411C164.938 227.411 165.159 227.498 165.341 227.674C165.527 227.846 165.619 228.055 165.619 228.3C165.619 228.542 165.527 228.751 165.341 228.927C165.159 229.099 164.938 229.185 164.68 229.185ZM173.138 232.228L171.79 232.467C171.734 232.294 171.644 232.13 171.522 231.974C171.403 231.819 171.24 231.691 171.035 231.592C170.829 231.492 170.572 231.442 170.264 231.442C169.843 231.442 169.492 231.537 169.21 231.726C168.928 231.911 168.787 232.152 168.787 232.447C168.787 232.702 168.882 232.907 169.071 233.063C169.26 233.219 169.565 233.347 169.986 233.446L171.199 233.724C171.901 233.887 172.425 234.137 172.77 234.475C173.114 234.813 173.287 235.252 173.287 235.793C173.287 236.25 173.154 236.658 172.889 237.016C172.627 237.37 172.261 237.649 171.79 237.851C171.323 238.053 170.781 238.154 170.165 238.154C169.309 238.154 168.612 237.972 168.072 237.607C167.531 237.239 167.2 236.717 167.077 236.041L168.514 235.822C168.604 236.197 168.787 236.48 169.066 236.673C169.344 236.862 169.707 236.956 170.155 236.956C170.642 236.956 171.031 236.855 171.323 236.653C171.615 236.447 171.76 236.197 171.76 235.902C171.76 235.663 171.671 235.463 171.492 235.3C171.316 235.138 171.046 235.015 170.682 234.933L169.389 234.649C168.676 234.487 168.149 234.228 167.808 233.874C167.47 233.519 167.301 233.07 167.301 232.526C167.301 232.076 167.427 231.681 167.679 231.343C167.931 231.005 168.279 230.741 168.723 230.553C169.167 230.36 169.676 230.264 170.249 230.264C171.074 230.264 171.724 230.443 172.198 230.801C172.672 231.156 172.985 231.631 173.138 232.228ZM176.408 233.466V238H174.921V227.818H176.388V231.607H176.482C176.661 231.196 176.935 230.869 177.303 230.627C177.67 230.385 178.151 230.264 178.744 230.264C179.268 230.264 179.725 230.372 180.116 230.587C180.511 230.803 180.816 231.124 181.031 231.552C181.25 231.976 181.359 232.506 181.359 233.143V238H179.873V233.322C179.873 232.762 179.729 232.327 179.44 232.019C179.152 231.708 178.751 231.552 178.237 231.552C177.886 231.552 177.571 231.626 177.293 231.776C177.018 231.925 176.8 232.143 176.641 232.432C176.486 232.717 176.408 233.062 176.408 233.466Z" fill="#4A5450"/>
<rect x="200" y="30" width="120" height="44" rx="22" fill="#141A18"/>
<path d="M228.667 49.25C229.057 49.5941 229.369 50.0173 229.583 50.4914C229.797 50.9655 229.908 51.4798 229.908 52C229.908 52.5202 229.797 53.0345 229.583 53.5086C229.369 53.9827 229.057 54.4059 228.667 54.75M231.417 46.5C232.197 47.1882 232.822 48.0345 233.25 48.9828C233.678 49.9311 233.899 50.9596 233.899 52C233.899 53.0404 233.678 54.0689 233.25 55.0172C232.822 55.9655 232.197 56.8118 231.417 57.5M217.667 49.25V54.75H221.333L225.917 58.4167V45.5833L221.333 49.25H217.667Z" stroke="white" stroke-width="1.83333" stroke-linecap="round" stroke-linejoin="round"/>
<path d="M245.076 56V45.0909H247.052V54.3434H251.857V56H245.076ZM253.487 56V47.8182H255.415V56H253.487ZM254.456 46.657C254.151 46.657 253.888 46.5558 253.668 46.3533C253.448 46.1474 253.338 45.9006 253.338 45.6129C253.338 45.3217 253.448 45.0749 253.668 44.8725C253.888 44.6665 254.151 44.5636 254.456 44.5636C254.765 44.5636 255.028 44.6665 255.245 44.8725C255.465 45.0749 255.575 45.3217 255.575 45.6129C255.575 45.9006 255.465 46.1474 255.245 46.3533C255.028 46.5558 254.765 46.657 254.456 46.657ZM263.865 49.9808L262.107 50.1726C262.057 49.995 261.97 49.8281 261.846 49.6719C261.725 49.5156 261.562 49.3896 261.356 49.2937C261.15 49.1978 260.898 49.1499 260.599 49.1499C260.198 49.1499 259.861 49.2369 259.587 49.4109C259.317 49.5849 259.184 49.8104 259.188 50.0874C259.184 50.3253 259.271 50.5188 259.449 50.668C259.63 50.8171 259.928 50.9396 260.344 51.0355L261.739 51.3338C262.513 51.5007 263.089 51.7653 263.465 52.1275C263.845 52.4897 264.037 52.9638 264.04 53.5497C264.037 54.0646 263.886 54.5192 263.588 54.9134C263.293 55.304 262.883 55.6094 262.357 55.8295C261.832 56.0497 261.228 56.1598 260.546 56.1598C259.545 56.1598 258.739 55.9503 258.128 55.5312C257.517 55.1087 257.153 54.521 257.036 53.7681L258.916 53.587C259.001 53.9563 259.182 54.2351 259.459 54.4233C259.736 54.6115 260.097 54.7056 260.541 54.7056C260.999 54.7056 261.366 54.6115 261.643 54.4233C261.924 54.2351 262.064 54.0025 262.064 53.7255C262.064 53.4911 261.974 53.2976 261.793 53.1449C261.615 52.9922 261.338 52.875 260.962 52.7933L259.566 52.5004C258.781 52.337 258.201 52.0618 257.824 51.6747C257.448 51.2841 257.261 50.7905 257.265 50.1939C257.261 49.6896 257.398 49.2528 257.675 48.8835C257.956 48.5107 258.344 48.223 258.842 48.0206C259.342 47.8146 259.919 47.7116 260.573 47.7116C261.532 47.7116 262.286 47.9158 262.837 48.3242C263.391 48.7326 263.733 49.2848 263.865 49.9808ZM269.716 47.8182V49.3097H265.013V47.8182H269.716ZM266.174 45.858H268.102V53.5391C268.102 53.7983 268.141 53.9972 268.219 54.1357C268.301 54.2706 268.407 54.3629 268.539 54.4126C268.67 54.4624 268.816 54.4872 268.976 54.4872C269.096 54.4872 269.206 54.4783 269.306 54.4606C269.409 54.4428 269.487 54.4268 269.54 54.4126L269.865 55.9201C269.762 55.9556 269.615 55.9947 269.423 56.0373C269.235 56.0799 269.004 56.1048 268.731 56.1119C268.248 56.1261 267.813 56.0533 267.426 55.8935C267.038 55.7301 266.731 55.478 266.504 55.1371C266.28 54.7962 266.17 54.37 266.174 53.8587V45.858ZM274.863 56.1598C274.043 56.1598 273.334 55.9893 272.738 55.6484C272.145 55.304 271.688 54.8175 271.369 54.1889C271.049 53.5568 270.889 52.8129 270.889 51.957C270.889 51.1154 271.049 50.3768 271.369 49.7411C271.692 49.1019 272.143 48.6048 272.722 48.2496C273.3 47.891 273.98 47.7116 274.762 47.7116C275.266 47.7116 275.742 47.7933 276.189 47.9567C276.64 48.1165 277.038 48.3651 277.382 48.7024C277.73 49.0398 278.004 49.4695 278.203 49.9915C278.402 50.5099 278.501 51.1278 278.501 51.8452V52.4364H271.795V51.1367H276.653C276.649 50.7674 276.569 50.4389 276.413 50.1513C276.257 49.8601 276.038 49.631 275.758 49.4641C275.481 49.2972 275.158 49.2138 274.788 49.2138C274.394 49.2138 274.048 49.3097 273.75 49.5014C273.451 49.6896 273.219 49.9382 273.052 50.2472C272.888 50.5526 272.805 50.8881 272.801 51.2539V52.3885C272.801 52.8643 272.888 53.2727 273.062 53.6136C273.237 53.951 273.48 54.2102 273.792 54.3913C274.105 54.5689 274.471 54.6577 274.89 54.6577C275.17 54.6577 275.424 54.6186 275.651 54.5405C275.879 54.4588 276.076 54.3398 276.243 54.1836C276.409 54.0273 276.536 53.8338 276.621 53.603L278.421 53.8054C278.308 54.2812 278.091 54.6967 277.771 55.0518C277.455 55.4034 277.05 55.6768 276.557 55.8722C276.063 56.0639 275.499 56.1598 274.863 56.1598ZM282.061 51.206V56H280.132V47.8182H281.975V49.2085H282.071C282.259 48.7504 282.56 48.3864 282.972 48.1165C283.387 47.8466 283.9 47.7116 284.511 47.7116C285.076 47.7116 285.567 47.8324 285.986 48.0739C286.409 48.3153 286.736 48.6651 286.967 49.1232C287.201 49.5813 287.316 50.1371 287.313 50.7905V56H285.384V51.0888C285.384 50.5419 285.242 50.114 284.958 49.805C284.678 49.4961 284.289 49.3416 283.792 49.3416C283.454 49.3416 283.154 49.4162 282.892 49.5653C282.632 49.7109 282.428 49.9222 282.279 50.1992C282.133 50.4762 282.061 50.8118 282.061 51.206Z" fill="white"/>
<rect x="20.5" y="322.5" width="132" height="37" rx="18.5" fill="white"/>
<rect x="20.5" y="322.5" width="132" height="37" rx="18.5" stroke="#E4E7E5"/>
<path d="M43 348.5C47.1421 348.5 50.5 345.142 50.5 341C50.5 336.858 47.1421 333.5 43 333.5C38.8579 333.5 35.5 336.858 35.5 341C35.5 345.142 38.8579 348.5 43 348.5Z" stroke="#4A5450" stroke-width="1.66667" stroke-linecap="round" stroke-linejoin="round"/>
<path d="M35.5 341H50.5M43 333.5C44.7635 335.601 45.7302 338.257 45.7302 341C45.7302 343.743 44.7635 346.399 43 348.5C41.2365 346.399 40.2698 343.743 40.2698 341C40.2698 338.257 41.2365 335.601 43 333.5Z" stroke="#4A5450" stroke-width="1.66667" stroke-linecap="round" stroke-linejoin="round"/>
<path d="M67.9631 340.909C67.9631 341.996 67.7642 342.931 67.3665 343.713C66.9688 344.492 66.4235 345.092 65.7308 345.513C65.0414 345.93 64.2576 346.139 63.3793 346.139C62.4976 346.139 61.7105 345.93 61.0178 345.513C60.3284 345.092 59.7848 344.49 59.3871 343.708C58.9893 342.926 58.7905 341.993 58.7905 340.909C58.7905 339.822 58.9893 338.889 59.3871 338.11C59.7848 337.328 60.3284 336.728 61.0178 336.31C61.7105 335.889 62.4976 335.679 63.3793 335.679C64.2576 335.679 65.0414 335.889 65.7308 336.31C66.4235 336.728 66.9688 337.328 67.3665 338.11C67.7642 338.889 67.9631 339.822 67.9631 340.909ZM66.4418 340.909C66.4418 340.08 66.3075 339.383 66.0391 338.816C65.7739 338.246 65.4093 337.815 64.9453 337.523C64.4846 337.228 63.9626 337.081 63.3793 337.081C62.7926 337.081 62.2689 337.228 61.8082 337.523C61.3475 337.815 60.983 338.246 60.7145 338.816C60.4493 339.383 60.3168 340.08 60.3168 340.909C60.3168 341.738 60.4493 342.437 60.7145 343.007C60.983 343.574 61.3475 344.005 61.8082 344.3C62.2689 344.591 62.7926 344.737 63.3793 344.737C63.9626 344.737 64.4846 344.591 64.9453 344.3C65.4093 344.005 65.7739 343.574 66.0391 343.007C66.3075 342.437 66.4418 341.738 66.4418 340.909ZM75.4814 340.228L74.1341 340.467C74.0777 340.294 73.9882 340.13 73.8656 339.974C73.7463 339.819 73.5839 339.691 73.3784 339.592C73.1729 339.492 72.916 339.442 72.6078 339.442C72.1868 339.442 71.8355 339.537 71.5538 339.726C71.2721 339.911 71.1312 340.152 71.1312 340.447C71.1312 340.702 71.2257 340.907 71.4146 341.063C71.6035 341.219 71.9084 341.347 72.3294 341.446L73.5424 341.724C74.2451 341.887 74.7688 342.137 75.1135 342.475C75.4582 342.813 75.6305 343.252 75.6305 343.793C75.6305 344.25 75.4979 344.658 75.2328 345.016C74.9709 345.37 74.6047 345.649 74.1341 345.851C73.6667 346.053 73.1248 346.154 72.5083 346.154C71.6532 346.154 70.9556 345.972 70.4153 345.607C69.8751 345.239 69.5436 344.717 69.421 344.041L70.8578 343.822C70.9473 344.197 71.1312 344.48 71.4096 344.673C71.688 344.862 72.051 344.956 72.4984 344.956C72.9856 344.956 73.3751 344.855 73.6667 344.653C73.9584 344.447 74.1042 344.197 74.1042 343.902C74.1042 343.663 74.0147 343.463 73.8358 343.3C73.6601 343.138 73.39 343.015 73.0254 342.933L71.7328 342.649C71.0202 342.487 70.4932 342.228 70.1518 341.874C69.8137 341.519 69.6447 341.07 69.6447 340.526C69.6447 340.076 69.7707 339.681 70.0225 339.343C70.2744 339.005 70.6225 338.741 71.0666 338.553C71.5107 338.36 72.0195 338.264 72.5929 338.264C73.4181 338.264 74.0678 338.443 74.5417 338.801C75.0157 339.156 75.3289 339.631 75.4814 340.228ZM78.7514 341.466V346H77.2649V335.818H78.7315V339.607H78.826C79.005 339.196 79.2784 338.869 79.6463 338.627C80.0142 338.385 80.4948 338.264 81.0881 338.264C81.6117 338.264 82.0691 338.372 82.4602 338.587C82.8546 338.803 83.1596 339.124 83.375 339.552C83.5938 339.976 83.7031 340.506 83.7031 341.143V346H82.2166V341.322C82.2166 340.762 82.0724 340.327 81.7841 340.019C81.4957 339.708 81.0947 339.552 80.581 339.552C80.2296 339.552 79.9148 339.626 79.6364 339.776C79.3613 339.925 79.1442 340.143 78.9851 340.432C78.8293 340.717 78.7514 341.062 78.7514 341.466ZM85.6868 346V338.364H87.1733V346H85.6868ZM86.4375 337.185C86.179 337.185 85.9569 337.099 85.7713 336.927C85.589 336.751 85.4979 336.542 85.4979 336.3C85.4979 336.055 85.589 335.846 85.7713 335.674C85.9569 335.498 86.179 335.411 86.4375 335.411C86.696 335.411 86.9164 335.498 87.0987 335.674C87.2843 335.846 87.3771 336.055 87.3771 336.3C87.3771 336.542 87.2843 336.751 87.0987 336.927C86.9164 337.099 86.696 337.185 86.4375 337.185ZM90.8287 346L88.5815 338.364H90.1177L91.6142 343.972H91.6887L93.1902 338.364H94.7264L96.2179 343.947H96.2924L97.7789 338.364H99.3152L97.073 346H95.5566L94.0055 340.487H93.8912L92.34 346H90.8287ZM102.948 346.169C102.464 346.169 102.027 346.08 101.636 345.901C101.245 345.718 100.935 345.455 100.706 345.11C100.481 344.765 100.368 344.343 100.368 343.842C100.368 343.411 100.451 343.057 100.616 342.778C100.782 342.5 101.006 342.28 101.288 342.117C101.569 341.955 101.884 341.832 102.232 341.749C102.58 341.666 102.935 341.603 103.296 341.56C103.754 341.507 104.125 341.464 104.41 341.431C104.695 341.395 104.902 341.337 105.031 341.257C105.161 341.178 105.225 341.048 105.225 340.869V340.835C105.225 340.4 105.103 340.064 104.857 339.825C104.615 339.587 104.254 339.467 103.773 339.467C103.273 339.467 102.879 339.578 102.59 339.8C102.305 340.019 102.108 340.263 101.999 340.531L100.602 340.213C100.767 339.749 101.009 339.375 101.327 339.089C101.649 338.801 102.018 338.592 102.436 338.463C102.854 338.33 103.293 338.264 103.754 338.264C104.058 338.264 104.382 338.301 104.723 338.374C105.068 338.443 105.389 338.572 105.688 338.761C105.989 338.95 106.236 339.22 106.428 339.572C106.621 339.92 106.717 340.372 106.717 340.929V346H105.265V344.956H105.205C105.109 345.148 104.965 345.337 104.773 345.523C104.58 345.708 104.334 345.862 104.032 345.985C103.73 346.108 103.369 346.169 102.948 346.169ZM103.271 344.976C103.682 344.976 104.034 344.895 104.325 344.732C104.62 344.57 104.844 344.358 104.996 344.096C105.152 343.831 105.23 343.547 105.23 343.246V342.261C105.177 342.314 105.074 342.364 104.922 342.411C104.773 342.454 104.602 342.492 104.41 342.525C104.218 342.555 104.03 342.583 103.848 342.609C103.666 342.633 103.513 342.652 103.391 342.669C103.102 342.705 102.839 342.767 102.6 342.853C102.365 342.939 102.176 343.063 102.033 343.226C101.894 343.385 101.825 343.597 101.825 343.862C101.825 344.23 101.96 344.509 102.232 344.697C102.504 344.883 102.85 344.976 103.271 344.976ZM108.697 346V338.364H110.123V339.607H110.218C110.377 339.186 110.637 338.857 110.998 338.622C111.36 338.384 111.792 338.264 112.296 338.264C112.806 338.264 113.234 338.384 113.579 338.622C113.927 338.861 114.184 339.189 114.349 339.607H114.429C114.611 339.199 114.901 338.874 115.299 338.632C115.697 338.387 116.171 338.264 116.721 338.264C117.413 338.264 117.979 338.481 118.416 338.915C118.857 339.35 119.077 340.004 119.077 340.879V346H117.591V341.018C117.591 340.501 117.45 340.127 117.168 339.895C116.886 339.663 116.55 339.547 116.159 339.547C115.675 339.547 115.299 339.696 115.03 339.994C114.762 340.289 114.628 340.669 114.628 341.133V346H113.146V340.924C113.146 340.51 113.017 340.177 112.758 339.925C112.5 339.673 112.163 339.547 111.749 339.547C111.467 339.547 111.207 339.621 110.969 339.771C110.733 339.916 110.543 340.12 110.397 340.382C110.254 340.644 110.183 340.947 110.183 341.292V346H108.697ZM121.189 346V335.818H122.675V339.602H122.765C122.851 339.442 122.975 339.259 123.138 339.05C123.3 338.841 123.526 338.659 123.814 338.503C124.102 338.344 124.483 338.264 124.957 338.264C125.574 338.264 126.124 338.42 126.608 338.732C127.092 339.043 127.471 339.492 127.746 340.079C128.025 340.665 128.164 341.371 128.164 342.197C128.164 343.022 128.027 343.73 127.751 344.32C127.476 344.906 127.098 345.359 126.618 345.677C126.137 345.992 125.589 346.149 124.972 346.149C124.508 346.149 124.129 346.071 123.834 345.915C123.542 345.76 123.313 345.577 123.148 345.369C122.982 345.16 122.854 344.974 122.765 344.812H122.641V346H121.189ZM122.646 342.182C122.646 342.719 122.723 343.189 122.879 343.594C123.035 343.998 123.26 344.315 123.555 344.543C123.85 344.769 124.212 344.881 124.639 344.881C125.083 344.881 125.455 344.764 125.753 344.528C126.051 344.29 126.277 343.967 126.429 343.559C126.585 343.151 126.663 342.692 126.663 342.182C126.663 341.678 126.586 341.226 126.434 340.825C126.285 340.424 126.059 340.107 125.758 339.875C125.46 339.643 125.087 339.527 124.639 339.527C124.208 339.527 123.844 339.638 123.545 339.86C123.25 340.082 123.027 340.392 122.874 340.79C122.722 341.187 122.646 341.652 122.646 342.182ZM133.05 346.154C132.334 346.154 131.709 345.99 131.176 345.662C130.642 345.334 130.228 344.875 129.933 344.285C129.638 343.695 129.49 343.005 129.49 342.217C129.49 341.424 129.638 340.732 129.933 340.138C130.228 339.545 130.642 339.085 131.176 338.756C131.709 338.428 132.334 338.264 133.05 338.264C133.766 338.264 134.391 338.428 134.924 338.756C135.458 339.085 135.872 339.545 136.167 340.138C136.462 340.732 136.61 341.424 136.61 342.217C136.61 343.005 136.462 343.695 136.167 344.285C135.872 344.875 135.458 345.334 134.924 345.662C134.391 345.99 133.766 346.154 133.05 346.154ZM133.055 344.906C133.519 344.906 133.903 344.784 134.208 344.538C134.513 344.293 134.739 343.967 134.884 343.559C135.034 343.151 135.108 342.702 135.108 342.212C135.108 341.724 135.034 341.277 134.884 340.869C134.739 340.458 134.513 340.129 134.208 339.88C133.903 339.631 133.519 339.507 133.055 339.507C132.588 339.507 132.2 339.631 131.892 339.88C131.587 340.129 131.36 340.458 131.21 340.869C131.065 341.277 130.992 341.724 130.992 342.212C130.992 342.702 131.065 343.151 131.21 343.559C131.36 343.967 131.587 344.293 131.892 344.538C132.2 344.784 132.588 344.906 133.055 344.906Z" fill="#4A5450"/>
</svg>
